<?xml version="1.0" standalone="no"?>
<!DOCTYPE svg PUBLIC "-//W3C//DTD SVG 20010904//EN"
 "http://www.w3.org/TR/2001/REC-SVG-20010904/DTD/svg10.dtd">
<svg version="1.0" xmlns="http://www.w3.org/2000/svg"
 width="1000.000000pt" height="1000.000000pt" viewBox="0 0 1000.000000 1000.000000"
 preserveAspectRatio="xMidYMid meet">

<g transform="translate(0.000000,1000.000000) scale(0.100000,-0.100000)"
fill="#000000" stroke="none">
<path d="M4765 8204 c-628 -62 -1165 -250 -1662 -581 -624 -416 -1110 -1053
-1352 -1768 -86 -255 -137 -492 -167 -778 -24 -227 -15 -612 20 -846 29 -189
94 -456 151 -621 418 -1198 1435 -2067 2680 -2290 230 -41 402 -53 680 -47
456 10 805 80 1227 248 729 289 1360 851 1746 1555 79 144 231 481 220 488 -2
1 -23 11 -48 22 -25 10 -99 54 -164 98 -66 43 -148 92 -183 108 -129 58 -254
31 -505 -109 -198 -111 -239 -131 -310 -149 -112 -29 -236 2 -598 149 -102 41
-216 85 -255 96 -38 12 -81 32 -95 45 -14 13 -43 33 -65 44 -39 19 -80 30
-407 107 -178 41 -271 82 -303 131 -11 18 -24 39 -30 47 -9 14 -18 11 -72 -21
l-62 -36 26 -49 c15 -27 41 -60 58 -74 56 -49 194 -105 345 -141 80 -19 151
-36 159 -38 7 -3 -13 -18 -45 -35 -33 -17 -130 -78 -216 -135 -184 -121 -200
-130 -270 -148 -106 -28 -191 1 -501 172 -267 148 -351 177 -491 170 -115 -6
-189 -31 -441 -148 -231 -107 -300 -131 -385 -132 -95 -1 -154 21 -409 147
-262 130 -343 162 -437 171 l-67 7 6 151 c48 1126 516 2151 1262 2762 190 156
712 463 940 552 28 11 74 30 103 41 33 13 50 16 46 9 -5 -7 -27 -40 -50 -73
-102 -148 -206 -367 -258 -547 -60 -207 -71 -514 -27 -739 23 -117 87 -329 99
-329 18 0 132 42 132 49 0 4 -12 41 -26 82 -78 226 -103 491 -70 734 50 360
300 807 503 900 32 14 66 30 76 36 89 49 667 90 937 65 222 -20 648 -91 795
-132 16 -4 28 7 58 51 20 30 37 58 37 60 0 10 -283 191 -385 247 -378 206
-784 340 -1230 404 -105 15 -620 28 -720 18z m595 -155 c402 -38 777 -144
1148 -326 74 -35 132 -66 130 -68 -2 -2 -63 5 -135 15 -322 45 -736 51 -1003
15 -506 -69 -946 -241 -1482 -580 -330 -210 -545 -402 -793 -710 -81 -101
-252 -361 -324 -493 -300 -554 -482 -1243 -508 -1925 l-6 -168 -46 -33 c-57
-42 -196 -185 -281 -289 l-64 -78 -17 33 c-29 58 -110 288 -145 417 -43 157
-80 348 -100 515 -20 165 -23 518 -5 686 106 1015 643 1904 1481 2455 643 423
1383 607 2150 534z m-2679 -4359 c34 -12 158 -70 277 -129 277 -138 341 -162
458 -168 123 -7 213 19 466 135 227 105 287 128 365 141 112 18 201 -14 513
-185 239 -131 329 -164 447 -164 114 0 202 40 443 200 152 101 194 125 263
146 107 33 235 2 607 -150 250 -101 341 -127 467 -133 91 -5 111 -3 185 20 46
15 142 59 213 98 209 116 293 157 346 168 56 12 85 8 144 -22 43 -21 245 -156
245 -163 0 -14 -111 -246 -162 -339 -63 -115 -169 -285 -178 -285 -3 0 -43 29
-90 65 -47 36 -132 101 -190 145 -57 44 -142 99 -188 122 -82 42 -87 43 -181
43 -94 0 -98 -1 -191 -46 -54 -26 -167 -97 -260 -164 -343 -247 -394 -264
-595 -198 -44 14 -150 62 -235 106 -419 217 -492 246 -636 254 -147 9 -232
-23 -514 -192 -252 -150 -338 -182 -450 -164 -100 15 -176 45 -463 183 -191
92 -300 128 -413 134 -177 9 -298 -32 -709 -243 -155 -80 -287 -145 -292 -145
-18 0 -222 321 -296 466 l-16 32 100 118 c169 200 269 295 341 324 39 15 116
11 179 -10z m4565 -630 c34 -17 106 -64 160 -105 55 -41 141 -107 192 -145 50
-39 92 -73 92 -77 0 -18 -173 -216 -300 -343 -515 -516 -1172 -843 -1895 -945
-126 -18 -446 -36 -520 -30 -27 2 -102 7 -165 10 -128 6 -333 34 -479 65 -665
144 -1285 502 -1747 1009 -63 69 -114 128 -114 132 0 10 491 261 592 303 114
47 201 68 278 68 107 1 181 -25 471 -163 102 -49 228 -103 280 -121 85 -30
105 -33 209 -33 110 0 119 2 201 36 48 20 168 84 267 143 298 176 363 199 489
172 99 -21 164 -47 346 -142 234 -123 354 -180 443 -211 69 -24 94 -28 194
-28 l115 0 105 52 c58 29 173 101 255 160 205 147 272 190 336 213 67 24 114
20 195 -20z"/>
<path d="M6845 6890 c-11 -5 -177 -166 -370 -359 -192 -193 -353 -351 -357
-351 -5 0 -8 6 -8 14 0 38 -55 125 -120 191 l-72 73 47 36 c102 78 212 109
253 73 57 -50 142 -13 142 62 0 25 -40 65 -90 91 -36 18 -56 21 -119 18 -94
-4 -186 -45 -306 -135 -46 -35 -333 -314 -680 -662 l-600 -601 -87 0 -88 0
-19 -37 c-36 -70 -118 -178 -190 -250 -69 -69 -197 -173 -213 -173 -32 0 34
167 121 309 103 168 129 278 97 414 -23 96 -60 163 -131 234 -109 109 -252
157 -402 136 -263 -38 -449 -289 -403 -545 12 -71 24 -98 144 -318 85 -157
107 -279 66 -367 l-19 -43 -101 0 -100 0 0 -240 0 -240 2320 0 2320 0 0 240 0
240 -39 0 -39 0 19 60 c38 122 53 231 53 385 1 175 -17 255 -86 388 -37 72
-71 120 -246 352 -100 131 -152 273 -136 369 14 86 83 230 176 368 33 50 58
92 55 94 -8 8 -231 -27 -328 -51 -258 -65 -478 -202 -588 -367 -33 -48 -39
-64 -36 -100 2 -24 7 -78 10 -121 13 -173 83 -367 197 -549 136 -216 175 -314
185 -460 5 -80 4 -91 -20 -140 -14 -29 -51 -77 -81 -107 l-55 -54 -128 33
c-239 61 -440 147 -593 253 l-75 52 -3 78 -3 77 80 0 79 0 4 -101 c3 -93 5
-102 28 -119 29 -22 49 -25 83 -9 43 20 47 44 47 318 0 245 -1 258 -20 279
-26 28 -59 36 -93 23 -37 -14 -47 -46 -47 -147 l0 -84 -80 0 -80 0 0 102 0
103 217 217 218 218 -80 80 -80 80 277 277 c152 153 279 288 283 301 9 32 -11
77 -41 91 -29 13 -41 13 -69 1z m475 -395 c0 -4 -7 -19 -15 -34 -30 -60 -56
-176 -56 -257 0 -154 57 -278 224 -492 216 -276 254 -371 243 -607 -6 -135
-20 -219 -58 -338 l-22 -70 -135 7 c-168 7 -353 26 -364 35 -4 4 2 19 13 34
11 14 35 56 52 94 30 62 33 77 32 163 0 177 -57 350 -170 523 -137 210 -193
360 -219 587 -6 53 -4 59 28 98 70 90 198 177 341 233 68 27 106 35 106 24z
m-1495 -175 c19 -21 15 -25 -460 -500 l-480 -480 -45 0 -45 0 500 500 c275
275 503 500 506 500 3 0 14 -9 24 -20z m135 -180 c0 -19 -9 -40 -25 -55 -22
-23 -85 -36 -85 -18 0 10 92 103 102 103 4 0 8 -14 8 -30z m345 -60 c19 -21
17 -23 -163 -203 l-182 -182 0 -205 c-1 -197 -1 -204 -18 -177 l-17 27 -205 0
-205 0 380 380 c209 209 383 380 386 380 3 0 14 -9 24 -20z m-535 -150 c22
-11 46 -20 55 -20 8 0 15 -3 15 -7 0 -5 -125 -133 -277 -285 l-278 -278 -85 0
-85 0 305 305 c168 168 306 305 308 305 1 0 20 -9 42 -20z m-1899 -152 c139
-76 203 -238 150 -378 -10 -27 -37 -78 -59 -113 -104 -164 -162 -317 -162
-426 l0 -70 -81 -26 c-44 -14 -82 -25 -85 -25 -2 0 -1 30 2 68 11 120 -32 263
-126 422 -28 47 -62 108 -75 136 -135 276 166 560 436 412z m2066 -707 c60
-59 142 -131 183 -158 331 -221 830 -353 1393 -370 l207 -6 0 -78 0 -79 -2160
0 -2160 0 0 79 0 79 98 12 c257 32 480 126 682 288 93 74 200 188 261 277 l44
65 672 0 673 0 107 -109z"/>
<path d="M4562 4890 c-48 -20 -52 -105 -7 -134 21 -14 93 -16 599 -16 400 0
582 3 599 11 26 12 47 47 47 77 0 9 -9 28 -20 42 l-19 25 -588 2 c-341 1 -598
-2 -611 -7z"/>
</g>
</svg>
